ISO-10303-21;
HEADER;
/* Generated by software containing ST-Developer
 * from STEP Tools, Inc. (www.steptools.com) 
 */
/* OPTION: using custom renumber hook */

FILE_DESCRIPTION(
/* description */ ('STEP AP242 Edition 2',
'CAx-IF Rec.Pracs.---Representation and Presentation of Product Manufa
cturing Information (PMI)---4.0---2014-10-13',
'CAx-IF Rec.Pracs.---3D Tessellated Geometry---0.4---2014-09-14','2;1',
'CAx-IF Rec.Pracs.---User Defined Attributes---1.5---2016-08-15'),
/* implementation_level */ '2;1');

FILE_NAME(
/* name */ 'Part Studio 1',
/* time_stamp */ '2026-09-18T21:00:19Z',
/* author */ (''),
/* organization */ (''),
/* preprocessor_version */ 'ST-DEVELOPER v20',
/* originating_system */ 'ONSHAPE BY PTC INC, 1.221',
/* authorisation */ '  ');

FILE_SCHEMA (('AP242_MANAGED_MODEL_BASED_3D_ENGINEERING_MIM_LF { 1 0 10303 442 3 1 4 }'));
ENDSEC;

DATA;
#10=SHAPE_REPRESENTATION_RELATIONSHIP('','',#359,#11);
#11=ADVANCED_BREP_SHAPE_REPRESENTATION('',(#357),#589);
#12=CYLINDRICAL_SURFACE('',#383,0.00725);
#13=CYLINDRICAL_SURFACE('',#385,0.00725);
#14=CYLINDRICAL_SURFACE('',#387,0.001);
#15=CYLINDRICAL_SURFACE('',#388,0.001);
#16=CYLINDRICAL_SURFACE('',#389,0.001);
#17=CYLINDRICAL_SURFACE('',#390,0.001);
#18=LINE('',#494,#54);
#19=LINE('',#498,#55);
#20=LINE('',#499,#56);
#21=LINE('',#502,#57);
#22=LINE('',#504,#58);
#23=LINE('',#506,#59);
#24=LINE('',#508,#60);
#25=LINE('',#511,#61);
#26=LINE('',#513,#62);
#27=LINE('',#515,#63);
#28=LINE('',#516,#64);
#29=LINE('',#518,#65);
#30=LINE('',#520,#66);
#31=LINE('',#522,#67);
#32=LINE('',#525,#68);
#33=LINE('',#527,#69);
#34=LINE('',#529,#70);
#35=LINE('',#531,#71);
#36=LINE('',#534,#72);
#37=LINE('',#536,#73);
#38=LINE('',#538,#74);
#39=LINE('',#539,#75);
#40=LINE('',#541,#76);
#41=LINE('',#543,#77);
#42=LINE('',#545,#78);
#43=LINE('',#548,#79);
#44=LINE('',#550,#80);
#45=LINE('',#552,#81);
#46=LINE('',#554,#82);
#47=LINE('',#559,#83);
#48=LINE('',#567,#84);
#49=LINE('',#572,#85);
#50=LINE('',#577,#86);
#51=LINE('',#578,#87);
#52=LINE('',#580,#88);
#53=LINE('',#582,#89);
#54=VECTOR('',#397,1.);
#55=VECTOR('',#400,1.);
#56=VECTOR('',#401,1.);
#57=VECTOR('',#402,1.);
#58=VECTOR('',#403,1.);
#59=VECTOR('',#404,1.);
#60=VECTOR('',#407,1.);
#61=VECTOR('',#408,1.);
#62=VECTOR('',#409,1.);
#63=VECTOR('',#410,1.);
#64=VECTOR('',#411,1.);
#65=VECTOR('',#412,1.);
#66=VECTOR('',#413,1.);
#67=VECTOR('',#416,1.);
#68=VECTOR('',#417,1.);
#69=VECTOR('',#418,1.);
#70=VECTOR('',#419,1.);
#71=VECTOR('',#422,1.);
#72=VECTOR('',#423,1.);
#73=VECTOR('',#424,1.);
#74=VECTOR('',#425,1.);
#75=VECTOR('',#426,1.);
#76=VECTOR('',#427,1.);
#77=VECTOR('',#428,1.);
#78=VECTOR('',#431,1.);
#79=VECTOR('',#432,1.);
#80=VECTOR('',#433,1.);
#81=VECTOR('',#434,1.);
#82=VECTOR('',#437,1.);
#83=VECTOR('',#440,1.);
#84=VECTOR('',#453,1.);
#85=VECTOR('',#462,1.);
#86=VECTOR('',#471,1.);
#87=VECTOR('',#472,1.);
#88=VECTOR('',#475,1.);
#89=VECTOR('',#478,1.);
#90=ORIENTED_EDGE('',*,*,#186,.F.);
#91=ORIENTED_EDGE('',*,*,#187,.F.);
#92=ORIENTED_EDGE('',*,*,#188,.F.);
#93=ORIENTED_EDGE('',*,*,#189,.T.);
#94=ORIENTED_EDGE('',*,*,#190,.T.);
#95=ORIENTED_EDGE('',*,*,#191,.T.);
#96=ORIENTED_EDGE('',*,*,#192,.F.);
#97=ORIENTED_EDGE('',*,*,#193,.F.);
#98=ORIENTED_EDGE('',*,*,#194,.F.);
#99=ORIENTED_EDGE('',*,*,#195,.T.);
#100=ORIENTED_EDGE('',*,*,#196,.T.);
#101=ORIENTED_EDGE('',*,*,#197,.T.);
#102=ORIENTED_EDGE('',*,*,#192,.T.);
#103=ORIENTED_EDGE('',*,*,#198,.F.);
#104=ORIENTED_EDGE('',*,*,#199,.T.);
#105=ORIENTED_EDGE('',*,*,#200,.T.);
#106=ORIENTED_EDGE('',*,*,#201,.T.);
#107=ORIENTED_EDGE('',*,*,#202,.T.);
#108=ORIENTED_EDGE('',*,*,#203,.F.);
#109=ORIENTED_EDGE('',*,*,#204,.T.);
#110=ORIENTED_EDGE('',*,*,#205,.T.);
#111=ORIENTED_EDGE('',*,*,#206,.T.);
#112=ORIENTED_EDGE('',*,*,#207,.F.);
#113=ORIENTED_EDGE('',*,*,#208,.T.);
#114=ORIENTED_EDGE('',*,*,#190,.F.);
#115=ORIENTED_EDGE('',*,*,#209,.F.);
#116=ORIENTED_EDGE('',*,*,#210,.F.);
#117=ORIENTED_EDGE('',*,*,#211,.T.);
#118=ORIENTED_EDGE('',*,*,#212,.T.);
#119=ORIENTED_EDGE('',*,*,#213,.T.);
#120=ORIENTED_EDGE('',*,*,#214,.F.);
#121=ORIENTED_EDGE('',*,*,#215,.T.);
#122=ORIENTED_EDGE('',*,*,#216,.T.);
#123=ORIENTED_EDGE('',*,*,#217,.T.);
#124=ORIENTED_EDGE('',*,*,#218,.F.);
#125=ORIENTED_EDGE('',*,*,#219,.T.);
#126=ORIENTED_EDGE('',*,*,#214,.T.);
#127=ORIENTED_EDGE('',*,*,#220,.T.);
#128=ORIENTED_EDGE('',*,*,#205,.F.);
#129=ORIENTED_EDGE('',*,*,#221,.T.);
#130=ORIENTED_EDGE('',*,*,#201,.F.);
#131=ORIENTED_EDGE('',*,*,#222,.T.);
#132=ORIENTED_EDGE('',*,*,#194,.T.);
#133=ORIENTED_EDGE('',*,*,#223,.T.);
#134=ORIENTED_EDGE('',*,*,#193,.T.);
#135=ORIENTED_EDGE('',*,*,#197,.F.);
#136=ORIENTED_EDGE('',*,*,#224,.F.);
#137=ORIENTED_EDGE('',*,*,#209,.T.);
#138=ORIENTED_EDGE('',*,*,#203,.T.);
#139=ORIENTED_EDGE('',*,*,#225,.T.);
#140=ORIENTED_EDGE('',*,*,#210,.T.);
#141=ORIENTED_EDGE('',*,*,#224,.T.);
#142=ORIENTED_EDGE('',*,*,#196,.F.);
#143=ORIENTED_EDGE('',*,*,#226,.T.);
#144=ORIENTED_EDGE('',*,*,#191,.F.);
#145=ORIENTED_EDGE('',*,*,#208,.F.);
#146=ORIENTED_EDGE('',*,*,#227,.T.);
#147=ORIENTED_EDGE('',*,*,#198,.T.);
#148=ORIENTED_EDGE('',*,*,#207,.T.);
#149=ORIENTED_EDGE('',*,*,#228,.T.);
#150=ORIENTED_EDGE('',*,*,#212,.F.);
#151=ORIENTED_EDGE('',*,*,#229,.T.);
#152=ORIENTED_EDGE('',*,*,#199,.F.);
#153=ORIENTED_EDGE('',*,*,#227,.F.);
#154=ORIENTED_EDGE('',*,*,#230,.T.);
#155=ORIENTED_EDGE('',*,*,#186,.T.);
#156=ORIENTED_EDGE('',*,*,#231,.F.);
#157=ORIENTED_EDGE('',*,*,#217,.F.);
#158=ORIENTED_EDGE('',*,*,#218,.T.);
#159=ORIENTED_EDGE('',*,*,#231,.T.);
#160=ORIENTED_EDGE('',*,*,#189,.F.);
#161=ORIENTED_EDGE('',*,*,#232,.F.);
#162=ORIENTED_EDGE('',*,*,#232,.T.);
#163=ORIENTED_EDGE('',*,*,#188,.T.);
#164=ORIENTED_EDGE('',*,*,#233,.F.);
#165=ORIENTED_EDGE('',*,*,#219,.F.);
#166=ORIENTED_EDGE('',*,*,#233,.T.);
#167=ORIENTED_EDGE('',*,*,#187,.T.);
#168=ORIENTED_EDGE('',*,*,#230,.F.);
#169=ORIENTED_EDGE('',*,*,#216,.F.);
#170=ORIENTED_EDGE('',*,*,#228,.F.);
#171=ORIENTED_EDGE('',*,*,#206,.F.);
#172=ORIENTED_EDGE('',*,*,#220,.F.);
#173=ORIENTED_EDGE('',*,*,#213,.F.);
#174=ORIENTED_EDGE('',*,*,#225,.F.);
#175=ORIENTED_EDGE('',*,*,#202,.F.);
#176=ORIENTED_EDGE('',*,*,#221,.F.);
#177=ORIENTED_EDGE('',*,*,#211,.F.);
#178=ORIENTED_EDGE('',*,*,#226,.F.);
#179=ORIENTED_EDGE('',*,*,#195,.F.);
#180=ORIENTED_EDGE('',*,*,#222,.F.);
#181=ORIENTED_EDGE('',*,*,#204,.F.);
#182=ORIENTED_EDGE('',*,*,#229,.F.);
#183=ORIENTED_EDGE('',*,*,#215,.F.);
#184=ORIENTED_EDGE('',*,*,#223,.F.);
#185=ORIENTED_EDGE('',*,*,#200,.F.);
#186=EDGE_CURVE('',#234,#235,#266,.T.);
#187=EDGE_CURVE('',#236,#234,#18,.T.);
#188=EDGE_CURVE('',#237,#236,#267,.T.);
#189=EDGE_CURVE('',#237,#235,#19,.T.);
#190=EDGE_CURVE('',#238,#239,#20,.T.);
#191=EDGE_CURVE('',#239,#240,#21,.T.);
#192=EDGE_CURVE('',#241,#240,#22,.T.);
#193=EDGE_CURVE('',#238,#241,#23,.T.);
#194=EDGE_CURVE('',#242,#243,#24,.T.);
#195=EDGE_CURVE('',#242,#244,#25,.F.);
#196=EDGE_CURVE('',#244,#245,#26,.T.);
#197=EDGE_CURVE('',#245,#241,#27,.T.);
#198=EDGE_CURVE('',#246,#240,#28,.T.);
#199=EDGE_CURVE('',#246,#247,#29,.T.);
#200=EDGE_CURVE('',#247,#243,#30,.T.);
#201=EDGE_CURVE('',#248,#249,#31,.T.);
#202=EDGE_CURVE('',#249,#250,#32,.F.);
#203=EDGE_CURVE('',#251,#250,#33,.T.);
#204=EDGE_CURVE('',#251,#248,#34,.T.);
#205=EDGE_CURVE('',#252,#253,#35,.T.);
#206=EDGE_CURVE('',#253,#254,#36,.F.);
#207=EDGE_CURVE('',#255,#254,#37,.T.);
#208=EDGE_CURVE('',#255,#239,#38,.T.);
#209=EDGE_CURVE('',#256,#238,#39,.T.);
#210=EDGE_CURVE('',#257,#256,#40,.T.);
#211=EDGE_CURVE('',#257,#252,#41,.T.);
#212=EDGE_CURVE('',#258,#259,#42,.T.);
#213=EDGE_CURVE('',#259,#260,#43,.T.);
#214=EDGE_CURVE('',#261,#260,#44,.T.);
#215=EDGE_CURVE('',#261,#258,#45,.F.);
#216=EDGE_CURVE('',#262,#263,#46,.T.);
#217=EDGE_CURVE('',#263,#264,#268,.T.);
#218=EDGE_CURVE('',#265,#264,#47,.T.);
#219=EDGE_CURVE('',#265,#262,#269,.T.);
#220=EDGE_CURVE('',#260,#253,#270,.F.);
#221=EDGE_CURVE('',#252,#249,#271,.F.);
#222=EDGE_CURVE('',#248,#242,#272,.F.);
#223=EDGE_CURVE('',#243,#261,#273,.F.);
#224=EDGE_CURVE('',#256,#245,#48,.T.);
#225=EDGE_CURVE('',#250,#257,#274,.T.);
#226=EDGE_CURVE('',#244,#251,#275,.T.);
#227=EDGE_CURVE('',#255,#246,#49,.T.);
#228=EDGE_CURVE('',#254,#259,#276,.T.);
#229=EDGE_CURVE('',#258,#247,#277,.T.);
#230=EDGE_CURVE('',#263,#234,#50,.T.);
#231=EDGE_CURVE('',#264,#235,#51,.T.);
#232=EDGE_CURVE('',#265,#237,#52,.T.);
#233=EDGE_CURVE('',#262,#236,#53,.T.);
#234=VERTEX_POINT('',#492);
#235=VERTEX_POINT('',#493);
#236=VERTEX_POINT('',#495);
#237=VERTEX_POINT('',#497);
#238=VERTEX_POINT('',#500);
#239=VERTEX_POINT('',#501);
#240=VERTEX_POINT('',#503);
#241=VERTEX_POINT('',#505);
#242=VERTEX_POINT('',#509);
#243=VERTEX_POINT('',#510);
#244=VERTEX_POINT('',#512);
#245=VERTEX_POINT('',#514);
#246=VERTEX_POINT('',#517);
#247=VERTEX_POINT('',#519);
#248=VERTEX_POINT('',#523);
#249=VERTEX_POINT('',#524);
#250=VERTEX_POINT('',#526);
#251=VERTEX_POINT('',#528);
#252=VERTEX_POINT('',#532);
#253=VERTEX_POINT('',#533);
#254=VERTEX_POINT('',#535);
#255=VERTEX_POINT('',#537);
#256=VERTEX_POINT('',#540);
#257=VERTEX_POINT('',#542);
#258=VERTEX_POINT('',#546);
#259=VERTEX_POINT('',#547);
#260=VERTEX_POINT('',#549);
#261=VERTEX_POINT('',#551);
#262=VERTEX_POINT('',#555);
#263=VERTEX_POINT('',#556);
#264=VERTEX_POINT('',#558);
#265=VERTEX_POINT('',#560);
#266=CIRCLE('',#362,0.00725);
#267=CIRCLE('',#363,0.00725);
#268=CIRCLE('',#369,0.00725);
#269=CIRCLE('',#370,0.00725);
#270=CIRCLE('',#371,0.001);
#271=CIRCLE('',#372,0.001);
#272=CIRCLE('',#373,0.001);
#273=CIRCLE('',#374,0.001);
#274=CIRCLE('',#377,0.001);
#275=CIRCLE('',#378,0.001);
#276=CIRCLE('',#381,0.001);
#277=CIRCLE('',#382,0.001);
#278=EDGE_LOOP('',(#90,#91,#92,#93));
#279=EDGE_LOOP('',(#94,#95,#96,#97));
#280=EDGE_LOOP('',(#98,#99,#100,#101,#102,#103,#104,#105));
#281=EDGE_LOOP('',(#106,#107,#108,#109));
#282=EDGE_LOOP('',(#110,#111,#112,#113,#114,#115,#116,#117));
#283=EDGE_LOOP('',(#118,#119,#120,#121));
#284=EDGE_LOOP('',(#122,#123,#124,#125));
#285=EDGE_LOOP('',(#126,#127,#128,#129,#130,#131,#132,#133));
#286=EDGE_LOOP('',(#134,#135,#136,#137));
#287=EDGE_LOOP('',(#138,#139,#140,#141,#142,#143));
#288=EDGE_LOOP('',(#144,#145,#146,#147));
#289=EDGE_LOOP('',(#148,#149,#150,#151,#152,#153));
#290=EDGE_LOOP('',(#154,#155,#156,#157));
#291=EDGE_LOOP('',(#158,#159,#160,#161));
#292=EDGE_LOOP('',(#162,#163,#164,#165));
#293=EDGE_LOOP('',(#166,#167,#168,#169));
#294=EDGE_LOOP('',(#170,#171,#172,#173));
#295=EDGE_LOOP('',(#174,#175,#176,#177));
#296=EDGE_LOOP('',(#178,#179,#180,#181));
#297=EDGE_LOOP('',(#182,#183,#184,#185));
#298=FACE_BOUND('',#278,.T.);
#299=FACE_BOUND('',#279,.T.);
#300=FACE_BOUND('',#280,.T.);
#301=FACE_BOUND('',#281,.T.);
#302=FACE_BOUND('',#282,.T.);
#303=FACE_BOUND('',#283,.T.);
#304=FACE_BOUND('',#284,.T.);
#305=FACE_BOUND('',#285,.T.);
#306=FACE_BOUND('',#286,.T.);
#307=FACE_BOUND('',#287,.T.);
#308=FACE_BOUND('',#288,.T.);
#309=FACE_BOUND('',#289,.T.);
#310=FACE_BOUND('',#290,.T.);
#311=FACE_BOUND('',#291,.T.);
#312=FACE_BOUND('',#292,.T.);
#313=FACE_BOUND('',#293,.T.);
#314=FACE_BOUND('',#294,.T.);
#315=FACE_BOUND('',#295,.T.);
#316=FACE_BOUND('',#296,.T.);
#317=FACE_BOUND('',#297,.T.);
#318=PLANE('',#361);
#319=PLANE('',#364);
#320=PLANE('',#365);
#321=PLANE('',#366);
#322=PLANE('',#367);
#323=PLANE('',#368);
#324=PLANE('',#375);
#325=PLANE('',#376);
#326=PLANE('',#379);
#327=PLANE('',#380);
#328=PLANE('',#384);
#329=PLANE('',#386);
#330=ADVANCED_FACE('',(#298,#299),#318,.T.);
#331=ADVANCED_FACE('',(#300),#319,.T.);
#332=ADVANCED_FACE('',(#301),#320,.F.);
#333=ADVANCED_FACE('',(#302),#321,.F.);
#334=ADVANCED_FACE('',(#303),#322,.T.);
#335=ADVANCED_FACE('',(#304,#305),#323,.F.);
#336=ADVANCED_FACE('',(#306),#324,.F.);
#337=ADVANCED_FACE('',(#307),#325,.T.);
#338=ADVANCED_FACE('',(#308),#326,.T.);
#339=ADVANCED_FACE('',(#309),#327,.T.);
#340=ADVANCED_FACE('',(#310),#12,.F.);
#341=ADVANCED_FACE('',(#311),#328,.T.);
#342=ADVANCED_FACE('',(#312),#13,.F.);
#343=ADVANCED_FACE('',(#313),#329,.F.);
#344=ADVANCED_FACE('',(#314),#14,.T.);
#345=ADVANCED_FACE('',(#315),#15,.T.);
#346=ADVANCED_FACE('',(#316),#16,.T.);
#347=ADVANCED_FACE('',(#317),#17,.T.);
#348=CLOSED_SHELL('',(#330,#331,#332,#333,#334,#335,#336,#337,#338,#339,
#340,#341,#342,#343,#344,#345,#346,#347));
#349=STYLED_ITEM('',(#350),#357);
#350=PRESENTATION_STYLE_ASSIGNMENT((#351));
#351=SURFACE_STYLE_USAGE(.BOTH.,#352);
#352=SURFACE_SIDE_STYLE('',(#353));
#353=SURFACE_STYLE_FILL_AREA(#354);
#354=FILL_AREA_STYLE('',(#355));
#355=FILL_AREA_STYLE_COLOUR('',#356);
#356=COLOUR_RGB('',0.615686274509804,0.811764705882353,0.929411764705882);
#357=MANIFOLD_SOLID_BREP('Part 1',#348);
#358=SHAPE_DEFINITION_REPRESENTATION(#594,#359);
#359=SHAPE_REPRESENTATION('Part 1',(#360),#589);
#360=AXIS2_PLACEMENT_3D('',#489,#391,#392);
#361=AXIS2_PLACEMENT_3D('',#490,#393,#394);
#362=AXIS2_PLACEMENT_3D('',#491,#395,#396);
#363=AXIS2_PLACEMENT_3D('',#496,#398,#399);
#364=AXIS2_PLACEMENT_3D('',#507,#405,#406);
#365=AXIS2_PLACEMENT_3D('',#521,#414,#415);
#366=AXIS2_PLACEMENT_3D('',#530,#420,#421);
#367=AXIS2_PLACEMENT_3D('',#544,#429,#430);
#368=AXIS2_PLACEMENT_3D('',#553,#435,#436);
#369=AXIS2_PLACEMENT_3D('',#557,#438,#439);
#370=AXIS2_PLACEMENT_3D('',#561,#441,#442);
#371=AXIS2_PLACEMENT_3D('',#562,#443,#444);
#372=AXIS2_PLACEMENT_3D('',#563,#445,#446);
#373=AXIS2_PLACEMENT_3D('',#564,#447,#448);
#374=AXIS2_PLACEMENT_3D('',#565,#449,#450);
#375=AXIS2_PLACEMENT_3D('',#566,#451,#452);
#376=AXIS2_PLACEMENT_3D('',#568,#454,#455);
#377=AXIS2_PLACEMENT_3D('',#569,#456,#457);
#378=AXIS2_PLACEMENT_3D('',#570,#458,#459);
#379=AXIS2_PLACEMENT_3D('',#571,#460,#461);
#380=AXIS2_PLACEMENT_3D('',#573,#463,#464);
#381=AXIS2_PLACEMENT_3D('',#574,#465,#466);
#382=AXIS2_PLACEMENT_3D('',#575,#467,#468);
#383=AXIS2_PLACEMENT_3D('',#576,#469,#470);
#384=AXIS2_PLACEMENT_3D('',#579,#473,#474);
#385=AXIS2_PLACEMENT_3D('',#581,#476,#477);
#386=AXIS2_PLACEMENT_3D('',#583,#479,#480);
#387=AXIS2_PLACEMENT_3D('',#584,#481,#482);
#388=AXIS2_PLACEMENT_3D('',#585,#483,#484);
#389=AXIS2_PLACEMENT_3D('',#586,#485,#486);
#390=AXIS2_PLACEMENT_3D('',#587,#487,#488);
#391=DIRECTION('',(0.,0.,1.));
#392=DIRECTION('',(1.,0.,0.));
#393=DIRECTION('',(0.,0.,1.));
#394=DIRECTION('',(1.,0.,0.));
#395=DIRECTION('',(0.,0.,1.));
#396=DIRECTION('',(1.,0.,0.));
#397=DIRECTION('',(-1.,0.,0.));
#398=DIRECTION('',(0.,0.,1.));
#399=DIRECTION('',(1.,0.,0.));
#400=DIRECTION('',(-1.,0.,0.));
#401=DIRECTION('',(-1.,-1.82602471155453E-16,0.));
#402=DIRECTION('',(-2.7390370673318E-16,-1.,0.));
#403=DIRECTION('',(-1.,-9.13012355777267E-17,0.));
#404=DIRECTION('',(2.7390370673318E-16,-1.,0.));
#405=DIRECTION('',(9.13012355777267E-17,-1.,0.));
#406=DIRECTION('',(1.,9.13012355777267E-17,0.));
#407=DIRECTION('',(-1.,-9.13012355777267E-17,0.));
#408=DIRECTION('',(0.,0.,-1.));
#409=DIRECTION('',(-1.,-9.13012355777267E-17,0.));
#410=DIRECTION('',(0.,0.,-1.));
#411=DIRECTION('',(0.,0.,-1.));
#412=DIRECTION('',(-1.,-9.13012355777267E-17,0.));
#413=DIRECTION('',(0.,0.,-1.));
#414=DIRECTION('',(-1.,9.13012355777267E-17,0.));
#415=DIRECTION('',(-9.13012355777267E-17,-1.,0.));
#416=DIRECTION('',(9.13012355777267E-17,1.,0.));
#417=DIRECTION('',(0.,0.,-1.));
#418=DIRECTION('',(9.13012355777267E-17,1.,0.));
#419=DIRECTION('',(0.,0.,-1.));
#420=DIRECTION('',(1.82602471155453E-16,-1.,0.));
#421=DIRECTION('',(1.,1.82602471155453E-16,0.));
#422=DIRECTION('',(-1.,-1.82602471155453E-16,0.));
#423=DIRECTION('',(0.,0.,-1.));
#424=DIRECTION('',(-1.,-1.82602471155453E-16,0.));
#425=DIRECTION('',(0.,0.,-1.));
#426=DIRECTION('',(0.,0.,-1.));
#427=DIRECTION('',(-1.,-1.82602471155453E-16,0.));
#428=DIRECTION('',(0.,0.,-1.));
#429=DIRECTION('',(-1.,9.13012355777267E-17,0.));
#430=DIRECTION('',(-9.13012355777267E-17,-1.,0.));
#431=DIRECTION('',(9.13012355777267E-17,1.,0.));
#432=DIRECTION('',(0.,0.,-1.));
#433=DIRECTION('',(9.13012355777267E-17,1.,0.));
#434=DIRECTION('',(0.,0.,-1.));
#435=DIRECTION('',(0.,0.,1.));
#436=DIRECTION('',(1.,0.,0.));
#437=DIRECTION('',(-1.,0.,0.));
#438=DIRECTION('',(0.,0.,1.));
#439=DIRECTION('',(1.,0.,0.));
#440=DIRECTION('',(-1.,0.,0.));
#441=DIRECTION('',(0.,0.,1.));
#442=DIRECTION('',(1.,0.,0.));
#443=DIRECTION('',(0.,0.,1.));
#444=DIRECTION('',(1.,0.,0.));
#445=DIRECTION('',(0.,0.,1.));
#446=DIRECTION('',(1.,0.,0.));
#447=DIRECTION('',(0.,0.,1.));
#448=DIRECTION('',(1.,0.,0.));
#449=DIRECTION('',(0.,0.,1.));
#450=DIRECTION('',(1.,0.,0.));
#451=DIRECTION('',(1.,2.7390370673318E-16,0.));
#452=DIRECTION('',(-2.7390370673318E-16,1.,0.));
#453=DIRECTION('',(2.7390370673318E-16,-1.,0.));
#454=DIRECTION('',(0.,0.,1.));
#455=DIRECTION('',(1.,0.,0.));
#456=DIRECTION('',(0.,0.,1.));
#457=DIRECTION('',(1.,0.,0.));
#458=DIRECTION('',(0.,0.,1.));
#459=DIRECTION('',(1.,0.,0.));
#460=DIRECTION('',(1.,-2.7390370673318E-16,0.));
#461=DIRECTION('',(2.7390370673318E-16,1.,0.));
#462=DIRECTION('',(-2.7390370673318E-16,-1.,0.));
#463=DIRECTION('',(0.,0.,1.));
#464=DIRECTION('',(1.,0.,0.));
#465=DIRECTION('',(0.,0.,1.));
#466=DIRECTION('',(1.,0.,0.));
#467=DIRECTION('',(0.,0.,1.));
#468=DIRECTION('',(1.,0.,0.));
#469=DIRECTION('',(0.,0.,1.));
#470=DIRECTION('',(1.,0.,0.));
#471=DIRECTION('',(0.,0.,1.));
#472=DIRECTION('',(0.,0.,1.));
#473=DIRECTION('',(0.,1.,0.));
#474=DIRECTION('',(0.,0.,1.));
#475=DIRECTION('',(0.,0.,1.));
#476=DIRECTION('',(0.,0.,1.));
#477=DIRECTION('',(1.,0.,0.));
#478=DIRECTION('',(0.,0.,1.));
#479=DIRECTION('',(0.,1.,0.));
#480=DIRECTION('',(0.,0.,1.));
#481=DIRECTION('',(0.,0.,1.));
#482=DIRECTION('',(1.,0.,0.));
#483=DIRECTION('',(0.,0.,-1.));
#484=DIRECTION('',(-1.,0.,0.));
#485=DIRECTION('',(0.,0.,1.));
#486=DIRECTION('',(1.,0.,0.));
#487=DIRECTION('',(0.,0.,-1.));
#488=DIRECTION('',(-1.,0.,0.));
#489=CARTESIAN_POINT('',(0.,0.,0.));
#490=CARTESIAN_POINT('',(0.,0.,0.017));
#491=CARTESIAN_POINT('',(-3.46944695195361E-18,1.7347234759768E-18,0.017));
#492=CARTESIAN_POINT('',(-0.00486537511400714,0.005375,0.017));
#493=CARTESIAN_POINT('',(-0.00486537511400714,-0.005375,0.017));
#494=CARTESIAN_POINT('',(0.,0.005375,0.017));
#495=CARTESIAN_POINT('',(0.00486537511400714,0.005375,0.017));
#496=CARTESIAN_POINT('',(6.93889390390723E-18,-7.37257477290143E-18,0.017));
#497=CARTESIAN_POINT('',(0.00486537511400714,-0.005375,0.017));
#498=CARTESIAN_POINT('',(8.67361737988404E-19,-0.005375,0.017));
#499=CARTESIAN_POINT('',(1.7347234759768E-18,0.0095,0.017));
#500=CARTESIAN_POINT('',(0.0075,0.0095,0.017));
#501=CARTESIAN_POINT('',(-0.0075,0.0095,0.017));
#502=CARTESIAN_POINT('',(-0.0075,-1.7347234759768E-18,0.017));
#503=CARTESIAN_POINT('',(-0.0075,-0.0095,0.017));
#504=CARTESIAN_POINT('',(8.67361737988404E-19,-0.0095,0.017));
#505=CARTESIAN_POINT('',(0.0075,-0.0095,0.017));
#506=CARTESIAN_POINT('',(0.0075,-1.7347234759768E-18,0.017));
#507=CARTESIAN_POINT('',(8.67361737988404E-19,-0.0095,0.017));
#508=CARTESIAN_POINT('',(8.67361737988404E-19,-0.0095,0.));
#509=CARTESIAN_POINT('',(0.0085,-0.0095,0.));
#510=CARTESIAN_POINT('',(-0.0085,-0.0095,0.));
#511=CARTESIAN_POINT('',(0.0085,-0.0095,0.023));
#512=CARTESIAN_POINT('',(0.0085,-0.0095,0.023));
#513=CARTESIAN_POINT('',(8.67361737988404E-19,-0.0095,0.023));
#514=CARTESIAN_POINT('',(0.0075,-0.0095,0.023));
#515=CARTESIAN_POINT('',(0.0075,-0.0095,0.023));
#516=CARTESIAN_POINT('',(-0.0075,-0.0095,0.023));
#517=CARTESIAN_POINT('',(-0.0075,-0.0095,0.023));
#518=CARTESIAN_POINT('',(8.67361737988404E-19,-0.0095,0.023));
#519=CARTESIAN_POINT('',(-0.0085,-0.0095,0.023));
#520=CARTESIAN_POINT('',(-0.0085,-0.0095,0.017));
#521=CARTESIAN_POINT('',(0.0095,0.,0.017));
#522=CARTESIAN_POINT('',(0.0095,0.,0.));
#523=CARTESIAN_POINT('',(0.0095,-0.0085,0.));
#524=CARTESIAN_POINT('',(0.0095,0.0085,0.));
#525=CARTESIAN_POINT('',(0.0095,0.0085,0.017));
#526=CARTESIAN_POINT('',(0.0095,0.0085,0.023));
#527=CARTESIAN_POINT('',(0.0095,0.,0.023));
#528=CARTESIAN_POINT('',(0.0095,-0.0085,0.023));
#529=CARTESIAN_POINT('',(0.0095,-0.0085,0.));
#530=CARTESIAN_POINT('',(1.7347234759768E-18,0.0095,0.017));
#531=CARTESIAN_POINT('',(1.7347234759768E-18,0.0095,0.));
#532=CARTESIAN_POINT('',(0.0085,0.0095,0.));
#533=CARTESIAN_POINT('',(-0.0085,0.0095,0.));
#534=CARTESIAN_POINT('',(-0.0085,0.0095,0.023));
#535=CARTESIAN_POINT('',(-0.0085,0.0095,0.023));
#536=CARTESIAN_POINT('',(1.7347234759768E-18,0.0095,0.023));
#537=CARTESIAN_POINT('',(-0.0075,0.0095,0.023));
#538=CARTESIAN_POINT('',(-0.0075,0.0095,0.023));
#539=CARTESIAN_POINT('',(0.0075,0.0095,0.023));
#540=CARTESIAN_POINT('',(0.0075,0.0095,0.023));
#541=CARTESIAN_POINT('',(1.7347234759768E-18,0.0095,0.023));
#542=CARTESIAN_POINT('',(0.0085,0.0095,0.023));
#543=CARTESIAN_POINT('',(0.0085,0.0095,0.017));
#544=CARTESIAN_POINT('',(-0.0095,-3.46944695195361E-18,0.017));
#545=CARTESIAN_POINT('',(-0.0095,-3.46944695195361E-18,0.023));
#546=CARTESIAN_POINT('',(-0.0095,-0.0085,0.023));
#547=CARTESIAN_POINT('',(-0.0095,0.0085,0.023));
#548=CARTESIAN_POINT('',(-0.0095,0.0085,0.));
#549=CARTESIAN_POINT('',(-0.0095,0.0085,0.));
#550=CARTESIAN_POINT('',(-0.0095,-3.46944695195361E-18,0.));
#551=CARTESIAN_POINT('',(-0.0095,-0.0085,0.));
#552=CARTESIAN_POINT('',(-0.0095,-0.0085,0.017));
#553=CARTESIAN_POINT('',(0.,0.,0.));
#554=CARTESIAN_POINT('',(0.,0.005375,0.));
#555=CARTESIAN_POINT('',(0.00486537511400714,0.005375,0.));
#556=CARTESIAN_POINT('',(-0.00486537511400714,0.005375,0.));
#557=CARTESIAN_POINT('',(-3.46944695195361E-18,1.7347234759768E-18,0.));
#558=CARTESIAN_POINT('',(-0.00486537511400714,-0.005375,0.));
#559=CARTESIAN_POINT('',(0.,-0.005375,0.));
#560=CARTESIAN_POINT('',(0.00486537511400714,-0.005375,0.));
#561=CARTESIAN_POINT('',(6.93889390390723E-18,-7.37257477290143E-18,0.));
#562=CARTESIAN_POINT('',(-0.0085,0.0085,0.));
#563=CARTESIAN_POINT('',(0.0085,0.0085,0.));
#564=CARTESIAN_POINT('',(0.0085,-0.0085,0.));
#565=CARTESIAN_POINT('',(-0.0085,-0.0085,0.));
#566=CARTESIAN_POINT('',(0.0075,-1.7347234759768E-18,0.023));
#567=CARTESIAN_POINT('',(0.0075,-1.7347234759768E-18,0.023));
#568=CARTESIAN_POINT('',(0.,0.,0.023));
#569=CARTESIAN_POINT('',(0.0085,0.0085,0.023));
#570=CARTESIAN_POINT('',(0.0085,-0.0085,0.023));
#571=CARTESIAN_POINT('',(-0.0075,-1.7347234759768E-18,0.023));
#572=CARTESIAN_POINT('',(-0.0075,-1.7347234759768E-18,0.023));
#573=CARTESIAN_POINT('',(0.,0.,0.023));
#574=CARTESIAN_POINT('',(-0.0085,0.0085,0.023));
#575=CARTESIAN_POINT('',(-0.0085,-0.0085,0.023));
#576=CARTESIAN_POINT('',(-3.46944695195361E-18,1.7347234759768E-18,-0.0183794783676548));
#577=CARTESIAN_POINT('',(-0.00486537511400714,0.005375,-0.0183794783676548));
#578=CARTESIAN_POINT('',(-0.00486537511400714,-0.005375,-0.0183794783676548));
#579=CARTESIAN_POINT('',(8.67361737988404E-19,-0.005375,-0.0183794783676548));
#580=CARTESIAN_POINT('',(0.00486537511400714,-0.005375,-0.0183794783676548));
#581=CARTESIAN_POINT('',(6.93889390390723E-18,-7.37257477290143E-18,-0.0183794783676548));
#582=CARTESIAN_POINT('',(0.00486537511400714,0.005375,-0.0183794783676548));
#583=CARTESIAN_POINT('',(0.,0.005375,-0.0183794783676548));
#584=CARTESIAN_POINT('',(-0.0085,0.0085,0.017));
#585=CARTESIAN_POINT('',(0.0085,0.0085,0.017));
#586=CARTESIAN_POINT('',(0.0085,-0.0085,0.017));
#587=CARTESIAN_POINT('',(-0.0085,-0.0085,0.017));
#588=MECHANICAL_DESIGN_GEOMETRIC_PRESENTATION_REPRESENTATION('',(#349),
#589);
#589=(
GEOMETRIC_REPRESENTATION_CONTEXT(3)
GLOBAL_UNCERTAINTY_ASSIGNED_CONTEXT((#590))
GLOBAL_UNIT_ASSIGNED_CONTEXT((#593,#592,#591))
REPRESENTATION_CONTEXT('Part 1','TOP_LEVEL_ASSEMBLY_PART')
);
#590=UNCERTAINTY_MEASURE_WITH_UNIT(LENGTH_MEASURE(1.E-8),#593,
'DISTANCE_ACCURACY_VALUE','Maximum Tolerance applied to model');
#591=(
NAMED_UNIT(*)
SI_UNIT($,.STERADIAN.)
SOLID_ANGLE_UNIT()
);
#592=(
NAMED_UNIT(*)
PLANE_ANGLE_UNIT()
SI_UNIT($,.RADIAN.)
);
#593=(
LENGTH_UNIT()
NAMED_UNIT(*)
SI_UNIT($,.METRE.)
);
#594=PRODUCT_DEFINITION_SHAPE('','',#595);
#595=PRODUCT_DEFINITION('','',#597,#596);
#596=PRODUCT_DEFINITION_CONTEXT('',#603,'design');
#597=PRODUCT_DEFINITION_FORMATION_WITH_SPECIFIED_SOURCE('','',#599,
 .NOT_KNOWN.);
#598=PRODUCT_RELATED_PRODUCT_CATEGORY('','',(#599));
#599=PRODUCT('Part 1','Part 1','Part 1',(#601));
#600=PRODUCT_CATEGORY('','');
#601=PRODUCT_CONTEXT('',#603,'mechanical');
#602=APPLICATION_PROTOCOL_DEFINITION('international standard',
'ap242_managed_model_based_3d_engineering',2020,#603);
#603=APPLICATION_CONTEXT('managed model based 3d engineering');
ENDSEC;
END-ISO-10303-21;
